<svg xmlns="http://www.w3.org/2000/svg" width="1024" height="1024" viewBox="0 0 1024 1024">
<rect width="100%" height="100%" fill="#FFFFFF"/>
<g transform="translate(297,123)">xmlns="http://www.w3.org/2000/svg" width="430" height="430" viewBox="0 0 430 430">
<circle cx="215.00" cy="51.60" r="16.01" fill="#10222E" fill-opacity="1.000"/>
<circle cx="182.32" cy="84.28" r="14.82" fill="#10222E" fill-opacity="0.922"/>
<circle cx="215.00" cy="84.28" r="14.82" fill="#10222E" fill-opacity="0.922"/>
<circle cx="247.68" cy="84.28" r="14.82" fill="#10222E" fill-opacity="0.922"/>
<circle cx="149.64" cy="116.96" r="13.63" fill="#10222E" fill-opacity="0.844"/>
<circle cx="182.32" cy="116.96" r="13.63" fill="#10222E" fill-opacity="0.844"/>
<circle cx="215.00" cy="116.96" r="13.63" fill="#10222E" fill-opacity="0.844"/>
<circle cx="247.68" cy="116.96" r="13.63" fill="#10222E" fill-opacity="0.844"/>
<circle cx="280.36" cy="116.96" r="13.63" fill="#10222E" fill-opacity="0.844"/>
<circle cx="116.96" cy="149.64" r="12.44" fill="#10222E" fill-opacity="0.766"/>
<circle cx="149.64" cy="149.64" r="12.44" fill="#10222E" fill-opacity="0.766"/>
<circle cx="182.32" cy="149.64" r="12.44" fill="#10222E" fill-opacity="0.766"/>
<circle cx="215.00" cy="149.64" r="12.44" fill="#10222E" fill-opacity="0.766"/>
<circle cx="247.68" cy="149.64" r="12.44" fill="#10222E" fill-opacity="0.766"/>
<circle cx="280.36" cy="149.64" r="12.44" fill="#10222E" fill-opacity="0.766"/>
<circle cx="313.04" cy="149.64" r="12.44" fill="#10222E" fill-opacity="0.766"/>
<circle cx="84.28" cy="182.32" r="11.25" fill="#10222E" fill-opacity="0.688"/>
<circle cx="116.96" cy="182.32" r="11.25" fill="#10222E" fill-opacity="0.688"/>
<circle cx="149.64" cy="182.32" r="11.25" fill="#10222E" fill-opacity="0.688"/>
<circle cx="182.32" cy="182.32" r="11.25" fill="#10222E" fill-opacity="0.688"/>
<circle cx="215.00" cy="182.32" r="11.25" fill="#10222E" fill-opacity="0.688"/>
<circle cx="247.68" cy="182.32" r="11.25" fill="#10222E" fill-opacity="0.688"/>
<circle cx="280.36" cy="182.32" r="11.25" fill="#10222E" fill-opacity="0.688"/>
<circle cx="313.04" cy="182.32" r="11.25" fill="#10222E" fill-opacity="0.688"/>
<circle cx="345.72" cy="182.32" r="11.25" fill="#10222E" fill-opacity="0.688"/>
<circle cx="51.60" cy="215.00" r="10.07" fill="#10222E" fill-opacity="0.610"/>
<circle cx="84.28" cy="215.00" r="10.07" fill="#10222E" fill-opacity="0.610"/>
<circle cx="116.96" cy="215.00" r="10.07" fill="#10222E" fill-opacity="0.610"/>
<circle cx="149.64" cy="215.00" r="10.07" fill="#10222E" fill-opacity="0.610"/>
<circle cx="182.32" cy="215.00" r="10.07" fill="#10222E" fill-opacity="0.610"/>
<circle cx="215.00" cy="215.00" r="10.07" fill="#10222E" fill-opacity="0.610"/>
<circle cx="247.68" cy="215.00" r="10.07" fill="#10222E" fill-opacity="0.610"/>
<circle cx="280.36" cy="215.00" r="10.07" fill="#10222E" fill-opacity="0.610"/>
<circle cx="313.04" cy="215.00" r="10.07" fill="#10222E" fill-opacity="0.610"/>
<circle cx="345.72" cy="215.00" r="10.07" fill="#10222E" fill-opacity="0.610"/>
<circle cx="378.40" cy="215.00" r="10.07" fill="#10222E" fill-opacity="0.610"/>
<circle cx="84.28" cy="247.68" r="8.88" fill="#10222E" fill-opacity="0.532"/>
<circle cx="116.96" cy="247.68" r="8.88" fill="#10222E" fill-opacity="0.532"/>
<circle cx="149.64" cy="247.68" r="8.88" fill="#10222E" fill-opacity="0.532"/>
<circle cx="182.32" cy="247.68" r="8.88" fill="#10222E" fill-opacity="0.532"/>
<circle cx="215.00" cy="247.68" r="8.88" fill="#10222E" fill-opacity="0.532"/>
<circle cx="247.68" cy="247.68" r="8.88" fill="#10222E" fill-opacity="0.532"/>
<circle cx="280.36" cy="247.68" r="8.88" fill="#10222E" fill-opacity="0.532"/>
<circle cx="313.04" cy="247.68" r="8.88" fill="#10222E" fill-opacity="0.532"/>
<circle cx="345.72" cy="247.68" r="8.88" fill="#10222E" fill-opacity="0.532"/>
<circle cx="116.96" cy="280.36" r="7.69" fill="#10222E" fill-opacity="0.454"/>
<circle cx="149.64" cy="280.36" r="7.69" fill="#10222E" fill-opacity="0.454"/>
<circle cx="182.32" cy="280.36" r="7.69" fill="#10222E" fill-opacity="0.454"/>
<circle cx="215.00" cy="280.36" r="7.69" fill="#10222E" fill-opacity="0.454"/>
<circle cx="247.68" cy="280.36" r="7.69" fill="#10222E" fill-opacity="0.454"/>
<circle cx="280.36" cy="280.36" r="7.69" fill="#10222E" fill-opacity="0.454"/>
<circle cx="313.04" cy="280.36" r="7.69" fill="#10222E" fill-opacity="0.454"/>
<circle cx="149.64" cy="313.04" r="6.50" fill="#10222E" fill-opacity="0.376"/>
<circle cx="182.32" cy="313.04" r="6.50" fill="#10222E" fill-opacity="0.376"/>
<circle cx="215.00" cy="313.04" r="6.50" fill="#10222E" fill-opacity="0.376"/>
<circle cx="247.68" cy="313.04" r="6.50" fill="#10222E" fill-opacity="0.376"/>
<circle cx="280.36" cy="313.04" r="6.50" fill="#10222E" fill-opacity="0.376"/>
<circle cx="182.32" cy="345.72" r="5.31" fill="#10222E" fill-opacity="0.298"/>
<circle cx="215.00" cy="345.72" r="5.31" fill="#10222E" fill-opacity="0.298"/>
<circle cx="247.68" cy="345.72" r="5.31" fill="#10222E" fill-opacity="0.298"/>
<circle cx="215.00" cy="378.40" r="4.12" fill="#10222E" fill-opacity="0.220"/>
</g>
<text x="512" y="720" text-anchor="middle" font-family="DejaVu Sans, Arial" font-size="72" font-weight="700" fill="#10222E">Kudo Advisory</text>

</svg>