<svg xmlns="http://www.w3.org/2000/svg" width="512" height="512" viewBox="0 0 512 512">
<circle cx="256.00" cy="61.44" r="19.07" fill="#10222E" fill-opacity="1.000"/>
<circle cx="217.09" cy="100.35" r="17.65" fill="#10222E" fill-opacity="0.922"/>
<circle cx="256.00" cy="100.35" r="17.65" fill="#10222E" fill-opacity="0.922"/>
<circle cx="294.91" cy="100.35" r="17.65" fill="#10222E" fill-opacity="0.922"/>
<circle cx="178.18" cy="139.26" r="16.23" fill="#10222E" fill-opacity="0.844"/>
<circle cx="217.09" cy="139.26" r="16.23" fill="#10222E" fill-opacity="0.844"/>
<circle cx="256.00" cy="139.26" r="16.23" fill="#10222E" fill-opacity="0.844"/>
<circle cx="294.91" cy="139.26" r="16.23" fill="#10222E" fill-opacity="0.844"/>
<circle cx="333.82" cy="139.26" r="16.23" fill="#10222E" fill-opacity="0.844"/>
<circle cx="139.26" cy="178.18" r="14.82" fill="#10222E" fill-opacity="0.766"/>
<circle cx="178.18" cy="178.18" r="14.82" fill="#10222E" fill-opacity="0.766"/>
<circle cx="217.09" cy="178.18" r="14.82" fill="#10222E" fill-opacity="0.766"/>
<circle cx="256.00" cy="178.18" r="14.82" fill="#10222E" fill-opacity="0.766"/>
<circle cx="294.91" cy="178.18" r="14.82" fill="#10222E" fill-opacity="0.766"/>
<circle cx="333.82" cy="178.18" r="14.82" fill="#10222E" fill-opacity="0.766"/>
<circle cx="372.74" cy="178.18" r="14.82" fill="#10222E" fill-opacity="0.766"/>
<circle cx="100.35" cy="217.09" r="13.40" fill="#10222E" fill-opacity="0.688"/>
<circle cx="139.26" cy="217.09" r="13.40" fill="#10222E" fill-opacity="0.688"/>
<circle cx="178.18" cy="217.09" r="13.40" fill="#10222E" fill-opacity="0.688"/>
<circle cx="217.09" cy="217.09" r="13.40" fill="#10222E" fill-opacity="0.688"/>
<circle cx="256.00" cy="217.09" r="13.40" fill="#10222E" fill-opacity="0.688"/>
<circle cx="294.91" cy="217.09" r="13.40" fill="#10222E" fill-opacity="0.688"/>
<circle cx="333.82" cy="217.09" r="13.40" fill="#10222E" fill-opacity="0.688"/>
<circle cx="372.74" cy="217.09" r="13.40" fill="#10222E" fill-opacity="0.688"/>
<circle cx="411.65" cy="217.09" r="13.40" fill="#10222E" fill-opacity="0.688"/>
<circle cx="61.44" cy="256.00" r="11.98" fill="#10222E" fill-opacity="0.610"/>
<circle cx="100.35" cy="256.00" r="11.98" fill="#10222E" fill-opacity="0.610"/>
<circle cx="139.26" cy="256.00" r="11.98" fill="#10222E" fill-opacity="0.610"/>
<circle cx="178.18" cy="256.00" r="11.98" fill="#10222E" fill-opacity="0.610"/>
<circle cx="217.09" cy="256.00" r="11.98" fill="#10222E" fill-opacity="0.610"/>
<circle cx="256.00" cy="256.00" r="11.98" fill="#10222E" fill-opacity="0.610"/>
<circle cx="294.91" cy="256.00" r="11.98" fill="#10222E" fill-opacity="0.610"/>
<circle cx="333.82" cy="256.00" r="11.98" fill="#10222E" fill-opacity="0.610"/>
<circle cx="372.74" cy="256.00" r="11.98" fill="#10222E" fill-opacity="0.610"/>
<circle cx="411.65" cy="256.00" r="11.98" fill="#10222E" fill-opacity="0.610"/>
<circle cx="450.56" cy="256.00" r="11.98" fill="#10222E" fill-opacity="0.610"/>
<circle cx="100.35" cy="294.91" r="10.57" fill="#10222E" fill-opacity="0.532"/>
<circle cx="139.26" cy="294.91" r="10.57" fill="#10222E" fill-opacity="0.532"/>
<circle cx="178.18" cy="294.91" r="10.57" fill="#10222E" fill-opacity="0.532"/>
<circle cx="217.09" cy="294.91" r="10.57" fill="#10222E" fill-opacity="0.532"/>
<circle cx="256.00" cy="294.91" r="10.57" fill="#10222E" fill-opacity="0.532"/>
<circle cx="294.91" cy="294.91" r="10.57" fill="#10222E" fill-opacity="0.532"/>
<circle cx="333.82" cy="294.91" r="10.57" fill="#10222E" fill-opacity="0.532"/>
<circle cx="372.74" cy="294.91" r="10.57" fill="#10222E" fill-opacity="0.532"/>
<circle cx="411.65" cy="294.91" r="10.57" fill="#10222E" fill-opacity="0.532"/>
<circle cx="139.26" cy="333.82" r="9.15" fill="#10222E" fill-opacity="0.454"/>
<circle cx="178.18" cy="333.82" r="9.15" fill="#10222E" fill-opacity="0.454"/>
<circle cx="217.09" cy="333.82" r="9.15" fill="#10222E" fill-opacity="0.454"/>
<circle cx="256.00" cy="333.82" r="9.15" fill="#10222E" fill-opacity="0.454"/>
<circle cx="294.91" cy="333.82" r="9.15" fill="#10222E" fill-opacity="0.454"/>
<circle cx="333.82" cy="333.82" r="9.15" fill="#10222E" fill-opacity="0.454"/>
<circle cx="372.74" cy="333.82" r="9.15" fill="#10222E" fill-opacity="0.454"/>
<circle cx="178.18" cy="372.74" r="7.74" fill="#10222E" fill-opacity="0.376"/>
<circle cx="217.09" cy="372.74" r="7.74" fill="#10222E" fill-opacity="0.376"/>
<circle cx="256.00" cy="372.74" r="7.74" fill="#10222E" fill-opacity="0.376"/>
<circle cx="294.91" cy="372.74" r="7.74" fill="#10222E" fill-opacity="0.376"/>
<circle cx="333.82" cy="372.74" r="7.74" fill="#10222E" fill-opacity="0.376"/>
<circle cx="217.09" cy="411.65" r="6.32" fill="#10222E" fill-opacity="0.298"/>
<circle cx="256.00" cy="411.65" r="6.32" fill="#10222E" fill-opacity="0.298"/>
<circle cx="294.91" cy="411.65" r="6.32" fill="#10222E" fill-opacity="0.298"/>
<circle cx="256.00" cy="450.56" r="4.90" fill="#10222E" fill-opacity="0.220"/>
</svg>